<?xml version="1.0" encoding="utf-8"?>
<svg version="1.1" xmlns:xlink="http://www.w3.org/1999/xlink" width="54px" height="48px" xmlns="http://www.w3.org/2000/svg">
  <g transform="matrix(1 0 0 1 -103 -218 )">
    <path d="M 53.4600546875 46.337328125  C 53.460109375 47.107765625  52.8374921875 47.7339375  52.0707734375 47  L 23.0003203125 47  C 22.2353515625 47.7339375  21.6127890625 47.107765625  21.6127890625 46.337328125  L 21.6127890625 43.08571875  C 21.6127890625 36.50046875  25.552640625 30.6583125  31.648546875 28.20459375  L 32.015609375 28.05846875  L 31.705203125 27.812046875  C 29.3975546875 25.9845546875  28.0720390625 23.2569609375  28.0720390625 20.324890625  C 28.0720390625 15.072375  32.3185234375 10.7984375  37.5363671875 10.7984375  C 42.7542109375 10.7984375  46.9989453125 15.072375  46.9989453125 20.324890625  C 46.9989453125 23.2569609375  45.67534375 25.9863046875  43.367640625 27.812046875  L 43.0572890625 28.05846875  L 43.4242421875 28.20459375  C 49.520203125 30.6583125  53.4600546875 36.50046875  53.4600546875 43.08571875  L 53.4600546875 46.337328125  Z M 35.6942734375 8.2370390625  C 29.7334453125 8.2589140625  25.2824296875 13.50590625  24.6416015625 17.622890625  C 24.1231640625 20.9565859375  24.65259375 24.5568828125  26.7776953125 27.1091484375  L 27.1337109375 27.39215625  L 26.7138203125 27.5601015625  C 21.516046875 29.66146875  18.941796875 34.313296875  17.965078125 39.679015625  C 17.02303125 39.7136875  16.4698671875 39.7081640625  16.4698671875 39.7081640625  C 8.7143046875 38.202015625  2.6457421875 32.1863359375  0.9824765625 24.34321875  C -0.116578125 19.1564375  0.84734375 13.8381875  3.6972734375 9.370765625  C 6.5471484375 4.90334375  10.93609375 1.8288671875  16.0553359375 0.713351562499999  C 17.4209921875 0.415742187499998  18.815796875 0.266062499999999  20.197859375 0.266062499999999  C 25.908546875 0.266062499999999  31.4860703125 2.9041875  35.1903828125 7.338796875  C 35.1903828125 7.338796875  35.3802578125 7.6619453125  35.6942734375 8.2370390625  Z M 21 20.763046875  L 21 9.65371875  L 18 9.65371875  L 18 19.987140625  L 11.3688359375 26.23278125  L 13.375265625 27.722578125  L 21 20.763046875  Z " fill-rule="nonzero" fill="#50ffff" stroke="none" transform="matrix(1 0 0 1 103 218 )" />
  </g>
</svg>